<svg xmlns="http://www.w3.org/2000/svg" xmlns:xlink="http://www.w3.org/1999/xlink" width="500" zoomAndPan="magnify" viewBox="0 0 375 374.999991" height="500" preserveAspectRatio="xMidYMid meet" version="1.0"><defs><g/><clipPath id="094f67a58e"><path d="M 54.027344 65 L 336 65 L 336 328 L 54.027344 328 Z M 54.027344 65 " clip-rule="nonzero"/></clipPath><clipPath id="973528388e"><path d="M 100 39 L 197 39 L 197 116 L 100 116 Z M 100 39 " clip-rule="nonzero"/></clipPath><clipPath id="768272fe20"><path d="M 102.414062 35.421875 L 198.0625 43.621094 L 191.851562 116.105469 L 96.199219 107.90625 Z M 102.414062 35.421875 " clip-rule="nonzero"/></clipPath><clipPath id="e215233497"><path d="M 102.414062 35.421875 L 198.0625 43.621094 L 191.851562 116.105469 L 96.199219 107.90625 Z M 102.414062 35.421875 " clip-rule="nonzero"/></clipPath><clipPath id="676e52ba94"><path d="M 59.578125 122.714844 L 81.605469 122.714844 L 81.605469 156.507812 L 59.578125 156.507812 Z M 59.578125 122.714844 " clip-rule="nonzero"/></clipPath><clipPath id="a9ef2fd780"><path d="M 69.898438 128.699219 C 67.726562 141.300781 66.449219 144 65.25 144.976562 C 64.5 145.574219 63.523438 145.726562 62.925781 145.574219 C 62.324219 145.425781 61.726562 144.675781 61.574219 144.074219 C 61.425781 143.625 61.574219 143.175781 61.726562 142.648438 C 62.023438 141.675781 62.851562 140.25 63.601562 139.273438 C 64.5 138.226562 65.476562 137.550781 66.898438 136.5 C 69.148438 134.773438 74.324219 130.351562 76.351562 130.050781 C 77.175781 129.898438 77.773438 130.125 78.148438 130.5 C 78.601562 130.875 78.976562 131.550781 78.824219 132.300781 C 78.375 134.101562 73.050781 138.675781 70.5 140.023438 C 68.851562 140.925781 66.824219 141.824219 65.773438 141.074219 C 64.5 140.25 64.125 135.898438 64.425781 133.875 C 64.648438 132.300781 65.625 131.175781 66.523438 129.824219 C 67.574219 128.398438 69 126.601562 70.273438 125.625 C 71.324219 124.800781 72.75 124.050781 73.574219 124.125 C 74.101562 124.199219 74.625 124.574219 74.851562 124.949219 C 75.148438 125.476562 75.375 126.148438 75.148438 126.976562 C 74.398438 129.148438 67.726562 136.125 65.25 137.023438 C 64.125 137.398438 62.925781 137.25 62.324219 136.726562 C 61.875 136.199219 61.726562 135.148438 62.023438 134.25 C 62.699219 132.300781 67.5 127.800781 69.375 126.898438 C 70.199219 126.523438 71.023438 126.449219 71.550781 126.675781 C 72.148438 126.898438 72.75 127.425781 72.824219 128.25 C 73.125 130.875 67.800781 142.574219 65.550781 144.75 C 64.574219 145.648438 63.523438 146.101562 62.851562 145.800781 C 62.175781 145.574219 61.574219 144.523438 61.5 143.324219 C 61.199219 140.398438 64.726562 129.300781 66.675781 127.726562 C 67.425781 127.125 68.476562 127.199219 69 127.5 C 69.601562 127.800781 69.976562 128.550781 70.050781 129.601562 C 70.199219 132.375 66 143.398438 64.351562 145.5 C 63.824219 146.175781 63.375 146.550781 62.773438 146.476562 C 62.175781 146.476562 61.125 145.875 60.675781 144.898438 C 59.699219 143.175781 59.324219 137.023438 60.226562 135.449219 C 60.675781 134.699219 61.648438 134.25 62.25 134.324219 C 62.925781 134.398438 63.601562 134.851562 64.125 135.824219 C 65.398438 138.523438 66 151.351562 65.023438 154.351562 C 64.648438 155.476562 63.976562 156.226562 63.375 156.375 C 62.851562 156.523438 61.949219 156.148438 61.574219 155.773438 C 61.273438 155.476562 61.050781 155.101562 61.050781 154.5 C 61.050781 153.148438 63.148438 150.300781 63.898438 147.824219 C 64.875 144.898438 64.800781 139.425781 65.925781 137.925781 C 66.449219 137.25 67.125 137.023438 67.726562 137.023438 C 68.25 137.023438 69 137.324219 69.449219 138 C 70.199219 139.125 70.351562 143.324219 69.976562 144.898438 C 69.675781 145.800781 69.226562 146.773438 68.550781 146.925781 C 67.875 147.148438 66.601562 146.773438 65.851562 145.949219 C 64.199219 144.148438 63 137.023438 62.625 133.648438 C 62.324219 131.398438 61.648438 129.523438 62.699219 127.949219 C 64.125 125.773438 69.449219 124.050781 72.601562 123.375 C 75.148438 122.773438 78.449219 122.476562 79.949219 123.300781 C 80.851562 123.75 81.601562 124.875 81.523438 125.625 C 81.523438 126.375 80.398438 127.574219 79.726562 127.800781 C 79.050781 128.023438 78.074219 127.648438 77.550781 127.199219 C 77.101562 126.75 76.726562 125.773438 76.875 125.101562 C 77.023438 124.425781 78.226562 123.300781 78.976562 123.148438 C 79.574219 123.074219 80.550781 123.523438 81 123.976562 C 81.375 124.351562 81.601562 124.875 81.523438 125.398438 C 81.449219 126.074219 80.851562 127.273438 79.949219 127.726562 C 78.523438 128.550781 74.550781 127.425781 72.675781 127.875 C 71.476562 128.175781 70.800781 129 69.75 129.300781 C 68.625 129.601562 66.75 128.773438 66.074219 129.675781 C 64.800781 131.476562 70.425781 142.199219 69.976562 144.898438 C 69.75 145.949219 69.226562 146.773438 68.550781 146.925781 C 67.875 147.148438 66.375 146.773438 65.851562 145.949219 C 64.875 144.601562 65.25 139.199219 65.925781 137.925781 C 66.226562 137.398438 66.75 137.175781 67.199219 137.101562 C 67.726562 137.023438 68.699219 137.101562 69.074219 137.625 C 69.601562 138.148438 69.675781 139.351562 69.601562 140.699219 C 69.523438 143.324219 68.25 149.324219 66.824219 152.101562 C 65.925781 154.050781 64.425781 156.148438 63.375 156.375 C 62.625 156.523438 61.726562 156 61.273438 155.398438 C 60.75 154.726562 60.824219 153.75 60.675781 152.324219 C 60.226562 148.949219 58.875 137.699219 60.226562 135.449219 C 60.675781 134.625 61.648438 134.25 62.25 134.324219 C 62.925781 134.398438 63.675781 135 64.125 135.824219 C 64.949219 137.550781 65.324219 143.324219 64.574219 145.050781 C 64.199219 145.875 63.449219 146.398438 62.773438 146.476562 C 62.25 146.625 61.425781 146.25 61.050781 145.800781 C 60.75 145.351562 60.601562 144.824219 60.675781 143.925781 C 60.898438 141.226562 64.574219 129.375 66.675781 127.726562 C 67.425781 127.125 68.476562 127.199219 69 127.5 C 69.601562 127.800781 69.976562 128.550781 70.050781 129.601562 C 70.273438 132.300781 67.425781 142.648438 65.550781 144.75 C 64.726562 145.648438 63.523438 146.101562 62.851562 145.800781 C 62.175781 145.574219 61.5 144.523438 61.5 143.324219 C 61.351562 140.25 66.824219 128.925781 69.148438 127.125 C 69.976562 126.449219 70.949219 126.449219 71.550781 126.675781 C 72.148438 126.898438 72.75 127.648438 72.824219 128.25 C 72.976562 128.851562 72.675781 129.449219 72.226562 130.199219 C 71.175781 131.925781 67.199219 136.351562 65.25 137.023438 C 64.199219 137.398438 62.925781 137.25 62.324219 136.726562 C 61.875 136.199219 61.648438 135.226562 62.023438 134.25 C 62.773438 131.925781 69.375 125.773438 71.625 124.648438 C 72.601562 124.125 73.5 123.976562 74.101562 124.273438 C 74.699219 124.648438 75.300781 126 75.148438 126.976562 C 74.851562 128.476562 71.398438 130.273438 70.199219 132 C 69.148438 133.5 67.648438 136.425781 67.949219 136.726562 C 68.476562 137.101562 74.023438 130.800781 75.898438 130.199219 C 76.648438 129.898438 77.324219 129.898438 77.773438 130.199219 C 78.300781 130.574219 78.976562 131.476562 78.824219 132.300781 C 78.375 134.476562 69.375 139.125 67.125 141.675781 C 65.851562 143.101562 65.699219 144.75 64.875 145.351562 C 64.273438 145.726562 63.449219 145.800781 62.925781 145.574219 C 62.25 145.273438 61.574219 144.074219 61.574219 143.101562 C 61.574219 141.675781 63.824219 139.949219 64.5 137.851562 C 65.476562 135.074219 64.726562 129.300781 65.851562 127.648438 C 66.449219 126.898438 67.351562 126.449219 68.023438 126.523438 C 68.773438 126.675781 69.898438 128.699219 69.898438 128.699219 " clip-rule="nonzero"/></clipPath><clipPath id="7d7d27c523"><path d="M 54 116.96875 L 160 116.96875 L 160 190.46875 L 54 190.46875 Z M 54 116.96875 " clip-rule="nonzero"/></clipPath><clipPath id="b8e94e1e07"><path d="M 103 116.96875 L 111 116.96875 L 111 125 L 103 125 Z M 103 116.96875 " clip-rule="nonzero"/></clipPath><clipPath id="a534b273a4"><path d="M 37.5 135 L 49 135 L 49 173 L 37.5 173 Z M 37.5 135 " clip-rule="nonzero"/></clipPath></defs><rect x="-37.5" width="450" fill="#ffffff" y="-37.499999" height="449.999989" fill-opacity="1"/><rect x="-37.5" width="450" fill="#ffffff" y="-37.499999" height="449.999989" fill-opacity="1"/><g clip-path="url(#094f67a58e)"><path fill="#ffde59" d="M 332.351562 229.0625 L 326.980469 245.980469 C 312.746094 279.246094 288.75 302.828125 254.992188 316.734375 C 221.042969 330.578125 184.90625 330.832031 146.582031 317.503906 C 110.421875 303.042969 84.296875 279.804688 68.203125 247.792969 C 63.066406 237.457031 59.382812 226.65625 57.152344 215.390625 L 55.027344 198.324219 C 54.378906 186.78125 55.4375 175.144531 58.203125 163.425781 C 67.789062 127.71875 88.332031 101.019531 119.832031 83.324219 C 151.332031 65.632812 186.605469 60.980469 225.65625 69.371094 C 264.269531 79.574219 293.613281 99.699219 313.683594 129.738281 C 333.753906 159.777344 339.980469 192.886719 332.351562 229.0625 " fill-opacity="1" fill-rule="nonzero"/></g><g clip-path="url(#973528388e)"><g clip-path="url(#768272fe20)"><g clip-path="url(#e215233497)"><path fill="#1e1e1e" d="M 111.863281 107.914062 C 113.523438 107.722656 116.839844 107.3125 120.1875 107.050781 C 123.535156 106.789062 126.917969 106.671875 130.335938 106.707031 C 133.757812 106.742188 137.210938 106.917969 139.800781 107.15625 C 142.386719 107.394531 144.09375 107.585938 145.753906 107.808594 C 147.410156 108.027344 149.011719 108.273438 150.566406 108.535156 C 152.117188 108.800781 153.617188 109.082031 155.445312 109.449219 C 157.273438 109.816406 159.464844 110.289062 161.722656 110.804688 C 163.980469 111.324219 166.304688 111.894531 168.691406 112.519531 C 171.078125 113.144531 173.53125 113.832031 175.429688 114.328125 C 177.328125 114.824219 178.1875 114.980469 178.976562 115.082031 C 179.765625 115.1875 180.5625 115.234375 181.691406 115.097656 C 182.820312 114.964844 185.09375 113.699219 186.015625 109.664062 C 186.9375 105.628906 187.214844 101.585938 188.011719 96.746094 C 188.8125 91.902344 190.046875 86.261719 191.769531 79.84375 C 193.492188 73.429688 195.730469 66.253906 196.136719 59.683594 C 196.539062 53.109375 193.15625 52.449219 192.039062 52.976562 C 190.921875 53.5 190.402344 53.941406 189.949219 54.40625 C 189.496094 54.871094 189.03125 55.40625 188.3125 56.261719 C 187.597656 57.117188 186.324219 58.667969 184.597656 60.785156 C 182.871094 62.902344 180.6875 65.585938 178.058594 68.851562 C 175.425781 72.121094 172.3125 75.941406 170.5 78.183594 C 168.6875 80.429688 168.515625 80.617188 168.464844 80.675781 C 168.410156 80.734375 168.53125 80.675781 168.917969 80.59375 C 169.300781 80.511719 169.957031 80.363281 170.171875 80.417969 C 170.386719 80.472656 170.320312 80.40625 169.996094 80.042969 C 169.671875 79.683594 169.191406 79.03125 168.609375 78.117188 C 168.027344 77.203125 167.367188 76.039062 166.792969 74.933594 C 166.21875 73.832031 165.546875 72.347656 164.5 69.914062 C 163.449219 67.476562 162.078125 64.105469 160.375 59.824219 C 158.667969 55.539062 156.628906 50.347656 155.351562 47.109375 C 154.074219 43.871094 153.785156 43.285156 153.425781 42.699219 C 153.066406 42.113281 152.582031 41.507812 151.855469 40.886719 C 151.128906 40.261719 150.015625 39.71875 149.007812 39.523438 C 147.996094 39.324219 145.914062 39.699219 144.746094 40.507812 C 143.578125 41.316406 142.96875 42.066406 142.546875 42.761719 C 142.125 43.457031 141.785156 44.15625 138.773438 51.90625 C 135.761719 59.65625 130.496094 74.417969 130.304688 74.90625 C 130.113281 75.394531 129.941406 75.804688 129.820312 76.0625 C 129.699219 76.324219 129.65625 76.40625 129.796875 76.238281 C 129.9375 76.074219 134.574219 74.554688 134.457031 74.402344 C 134.339844 74.25 132.597656 73.042969 129.90625 70.914062 C 127.214844 68.785156 123.660156 65.796875 119.277344 61.976562 C 114.890625 58.160156 109.644531 53.507812 109.027344 53.054688 C 108.410156 52.605469 107.722656 52.25 106.738281 52.019531 C 105.757812 51.785156 104.46875 51.894531 103.285156 52.519531 C 102.105469 53.140625 100.605469 56.488281 100.984375 59.558594 C 101.367188 62.632812 102.195312 66.308594 103.445312 70.652344 C 104.695312 75 106.378906 80.042969 108.046875 84.097656 C 109.710938 88.148438 114.707031 86.613281 113.855469 83.84375 C 113.855469 83.84375 112.933594 78.097656 111.863281 73.347656 C 110.792969 68.597656 110.074219 64.679688 109.726562 61.636719 C 109.382812 58.59375 109.378906 56.476562 108.339844 58.308594 C 107.304688 60.136719 106.292969 60.511719 105.4375 60.5 C 104.578125 60.488281 104.09375 60.324219 103.894531 60.222656 C 103.695312 60.121094 103.507812 59.972656 108.175781 64.722656 C 112.839844 69.472656 116.816406 73.355469 120.101562 76.378906 C 123.386719 79.40625 126.011719 81.605469 128.203125 83.09375 C 130.390625 84.582031 132.980469 85.417969 135.757812 84.15625 C 138.535156 82.894531 138.972656 82.261719 139.320312 81.648438 C 139.667969 81.035156 139.980469 80.402344 140.28125 79.714844 C 140.582031 79.023438 140.921875 78.171875 146.046875 63.351562 C 151.175781 48.53125 151.261719 48.28125 151.335938 48.085938 C 151.414062 47.890625 151.371094 47.929688 151.011719 48.277344 C 150.65625 48.621094 149.601562 49.199219 148.296875 49.304688 C 146.996094 49.410156 146.574219 49.269531 145.964844 48.910156 C 145.355469 48.546875 145.101562 48.289062 145.039062 48.195312 C 144.976562 48.097656 145.03125 48.160156 145.128906 48.320312 C 145.226562 48.480469 147.882812 54.113281 150.144531 58.886719 C 152.410156 63.660156 154.28125 67.558594 155.753906 70.59375 C 157.226562 73.628906 158.3125 75.808594 159.050781 77.160156 C 159.789062 78.507812 160.648438 79.945312 161.480469 81.214844 C 162.3125 82.484375 163.117188 83.574219 163.933594 84.496094 C 164.75 85.421875 165.632812 86.199219 166.605469 86.757812 C 167.578125 87.316406 168.523438 87.605469 169.589844 87.472656 C 170.65625 87.335938 171.496094 87.035156 172.148438 86.636719 C 172.800781 86.234375 173.347656 85.777344 173.839844 85.273438 C 174.335938 84.765625 177.9375 80.714844 181.050781 77.222656 C 184.160156 73.734375 186.800781 70.8125 188.945312 68.445312 C 191.089844 66.078125 192.757812 64.285156 193.929688 63.046875 C 195.101562 61.808594 195.558594 61.332031 195.867188 61.03125 C 196.179688 60.730469 196.339844 60.597656 196.175781 60.714844 C 196.011719 60.832031 194.824219 61.261719 192.378906 58.335938 C 189.933594 55.414062 186.777344 62.992188 184.160156 70.03125 C 181.542969 77.066406 179.542969 83.496094 178.199219 89.34375 C 176.855469 95.1875 176.144531 100.449219 176.042969 104.984375 C 175.941406 109.519531 177.710938 105.5 179.113281 104.867188 C 180.515625 104.230469 180.746094 104.226562 180.539062 104.214844 C 180.335938 104.199219 179.855469 104.144531 179.296875 104.0625 C 178.742188 103.980469 176.234375 103.378906 173.667969 102.808594 C 171.097656 102.234375 168.59375 101.71875 166.144531 101.261719 C 163.699219 100.800781 161.3125 100.410156 159 100.082031 C 156.683594 99.753906 155.09375 99.554688 153.441406 99.382812 C 151.789062 99.207031 150.097656 99.0625 148.359375 98.941406 C 146.625 98.824219 144.84375 98.722656 142.988281 98.648438 C 141.136719 98.574219 137.421875 98.582031 133.742188 98.738281 C 130.066406 98.894531 126.449219 99.222656 122.886719 99.703125 C 119.328125 100.1875 115.828125 100.84375 114.089844 101.296875 C 110.671875 102.097656 113.542969 107.570312 111.863281 107.914062 Z M 111.863281 107.914062 " fill-opacity="1" fill-rule="nonzero"/></g></g></g><g clip-path="url(#676e52ba94)"><g clip-path="url(#a9ef2fd780)"><path fill="#ffde59" d="M 57.226562 120.148438 L 84.601562 120.148438 L 84.601562 159.5 L 57.226562 159.5 Z M 57.226562 120.148438 " fill-opacity="1" fill-rule="nonzero"/></g></g><g clip-path="url(#7d7d27c523)"><path fill="#1e1e1e" d="M 151.113281 190.175781 L 63.339844 190.175781 C 58.441406 190.175781 54.605469 186.339844 54.605469 181.523438 L 54.605469 125.347656 C 54.605469 120.449219 58.441406 116.691406 63.339844 116.691406 L 150.867188 116.691406 C 155.6875 116.691406 159.523438 120.449219 159.523438 125.347656 L 159.523438 181.523438 C 159.769531 186.339844 155.6875 190.175781 151.113281 190.175781 Z M 122.128906 176.132812 L 92 176.132812 C 89.957031 176.132812 88.488281 174.582031 88.488281 172.539062 C 88.488281 170.5 89.957031 168.949219 92 168.949219 L 122.371094 168.949219 C 124.414062 168.949219 125.964844 170.5 125.964844 172.539062 C 125.964844 174.582031 124.167969 176.132812 122.128906 176.132812 Z M 84.894531 157.761719 C 77.464844 157.761719 71.339844 151.636719 71.339844 144.207031 C 71.339844 136.859375 77.464844 130.734375 84.894531 130.734375 C 92.324219 130.734375 98.449219 136.859375 98.449219 144.207031 C 98.449219 151.882812 92.570312 157.761719 84.894531 157.761719 Z M 84.894531 138.328125 C 81.546875 138.328125 78.773438 141.1875 78.773438 144.453125 C 78.773438 147.800781 81.546875 150.578125 84.894531 150.578125 C 88.160156 150.578125 91.019531 147.800781 91.019531 144.453125 C 91.019531 141.1875 88.488281 138.328125 84.894531 138.328125 Z M 129.3125 157.761719 C 121.882812 157.761719 115.757812 151.636719 115.757812 144.207031 C 115.757812 136.859375 121.882812 130.734375 129.3125 130.734375 C 136.660156 130.734375 142.785156 136.859375 142.785156 144.207031 C 142.539062 151.882812 136.660156 157.761719 129.3125 157.761719 Z M 129.3125 138.328125 C 125.964844 138.328125 123.191406 141.1875 123.191406 144.453125 C 123.191406 147.800781 125.964844 150.578125 129.3125 150.578125 C 132.578125 150.578125 135.4375 147.800781 135.4375 144.453125 C 135.191406 141.1875 132.578125 138.328125 129.3125 138.328125 Z M 129.3125 138.328125 " fill-opacity="1" fill-rule="evenodd"/></g><g clip-path="url(#b8e94e1e07)"><path fill="#1e1e1e" d="M 107.1875 124.039062 C 105.144531 124.039062 103.675781 122.488281 103.675781 120.449219 L 103.675781 102.648438 C 103.675781 100.605469 105.144531 99.054688 107.1875 99.054688 C 109.226562 99.054688 110.777344 100.605469 110.777344 102.648438 L 110.777344 120.449219 C 110.777344 122.488281 109.226562 124.039062 107.1875 124.039062 Z M 107.1875 124.039062 " fill-opacity="1" fill-rule="evenodd"/></g><path fill="#1e1e1e" d="M 165.648438 135.144531 C 172.34375 138.65625 176.914062 145.675781 176.914062 153.679688 C 177.078125 161.679688 172.507812 168.785156 165.648438 172.296875 Z M 165.648438 135.144531 " fill-opacity="1" fill-rule="evenodd"/><g clip-path="url(#a534b273a4)"><path fill="#1e1e1e" d="M 48.480469 172.050781 C 42.03125 168.457031 37.539062 161.515625 37.539062 153.679688 C 37.539062 145.757812 42.03125 138.820312 48.480469 135.308594 Z M 48.480469 172.050781 " fill-opacity="1" fill-rule="evenodd"/></g><g fill="#1e1e1e" fill-opacity="1"><g transform="translate(161.706337, 205.131505)"><g><path d="M 55.78125 -82.796875 L 64.0625 -71.796875 L 62.203125 -11.109375 L 53.703125 -1.09375 L 2.171875 0.109375 L 2.828125 -87.15625 Z M 25.171875 -66.015625 L 26.03125 -17.640625 L 41.171875 -21.03125 L 41.9375 -61.21875 Z M 25.171875 -66.015625 "/></g></g></g><g fill="#1e1e1e" fill-opacity="1"><g transform="translate(52.867739, 274.299884)"><g><path d="M 54.75 -66.125 L 56.140625 -0.1875 L 36.75 0.1875 L 36.1875 -23.03125 L 21.359375 -22.109375 L 19.859375 -0.28125 L 1.859375 0.09375 L 4.75 -68.359375 L 8.390625 -72.75 L 49.0625 -74.515625 Z M 36.09375 -37.21875 L 35.625 -55.765625 L 23.3125 -54.75 L 22.390625 -38.140625 Z M 36.09375 -37.21875 "/></g></g></g><g fill="#1e1e1e" fill-opacity="1"><g transform="translate(224.661319, 209.407389)"><g><path d="M 45.8125 -18.75 L 41.4375 -18.234375 L 47.3125 -6.21875 L 45.890625 -3.359375 L 32.953125 0 L 23.609375 -17.0625 L 19.5 -16.890625 L 18.75 -1.6875 L 1.6875 -0.25 L 1.6875 -67.40625 L 45.71875 -64.71875 L 49 -61.4375 L 49.078125 -24.375 Z M 31.34375 -32.859375 L 31.4375 -51.6875 L 20.34375 -52.78125 L 19.921875 -32.015625 Z M 31.34375 -32.859375 "/></g></g></g><g fill="#1e1e1e" fill-opacity="1"><g transform="translate(105.919831, 260.462213)"><g><path d="M 45.109375 -57.484375 L 45.421875 -52.1875 L 23.484375 0.546875 L 9.09375 -2.5625 L 8.5625 -5.984375 L 16.015625 -28.234375 L 1.5625 -59.734375 L 16.953125 -62.53125 L 24.8125 -47.609375 L 30.71875 -62.609375 Z M 45.109375 -57.484375 "/></g></g></g><g fill="#1e1e1e" fill-opacity="1"><g transform="translate(273.137418, 199.374123)"><g><path d="M 49.4375 -18.15625 L 50.546875 -0.203125 L 2 -0.203125 L 2 -80.421875 L 48.9375 -78.921875 L 48.328125 -60.5625 L 22.5625 -60.875 L 22.5625 -50.84375 L 39.203125 -49.84375 L 39.203125 -32.390625 L 22.46875 -33.390625 L 22.359375 -19.65625 Z M 49.4375 -18.15625 "/></g></g></g><g fill="#1e1e1e" fill-opacity="1"><g transform="translate(107.680236, 297.596602)"><g><path d="M 5.21875 -33.375 L 36.71875 -32.75 L 36.71875 -20.921875 L 4.671875 -21.234375 Z M 5.21875 -33.375 "/></g></g></g><g fill="#1e1e1e" fill-opacity="1"><g transform="translate(194.997984, 301.71855)"><g><path d="M 6.796875 -43.515625 L 47.875 -42.703125 L 47.875 -27.28125 L 6.09375 -27.6875 Z M 6.796875 -43.515625 "/></g></g></g><g fill="#1e1e1e" fill-opacity="1"><g transform="translate(152.914902, 273.551047)"><g><path d="M 39.28125 -14.703125 L 41.0625 0.078125 L 1.5625 0.078125 L 2.09375 -62.375 L 18.75 -61.375 L 17.890625 -14.9375 Z M 39.28125 -14.703125 "/></g></g></g><g fill="#1e1e1e" fill-opacity="1"><g transform="translate(291.387201, 271.388904)"><g><path d="M 45.0625 -66.890625 L 51.75 -58 L 50.25 -8.984375 L 43.390625 -0.875 L 1.765625 0.09375 L 2.28125 -70.40625 Z M 20.328125 -53.34375 L 21.03125 -14.265625 L 33.265625 -16.984375 L 33.890625 -49.46875 Z M 20.328125 -53.34375 "/></g></g></g><g fill="#1e1e1e" fill-opacity="1"><g transform="translate(174.877258, 255.118417)"><g><path d="M 27.453125 -42.875 L 38.9375 -43.15625 L 37.484375 -2.375 L 35.4375 0.15625 L 25.9375 0.046875 L 19.90625 -7.71875 L 14.03125 0.109375 L 3.890625 0 L 2 -2.640625 L 2 -3.015625 L 1.078125 -43.15625 L 12.140625 -42.828125 L 13.859375 -14.296875 L 19.734375 -21.84375 L 25.5625 -14.234375 Z M 27.453125 -42.875 "/></g></g></g><g fill="#1e1e1e" fill-opacity="1"><g transform="translate(215.381578, 255.518031)"><g><path d="M 32.453125 -39.1875 L 33.28125 -0.109375 L 21.78125 0.109375 L 21.453125 -13.65625 L 12.65625 -13.109375 L 11.78125 -0.171875 L 1.109375 0.0625 L 2.8125 -40.515625 L 4.96875 -43.125 L 29.078125 -44.171875 Z M 21.390625 -22.0625 L 21.125 -33.0625 L 13.8125 -32.453125 L 13.265625 -22.609375 Z M 21.390625 -22.0625 "/></g></g></g><g fill="#1e1e1e" fill-opacity="1"><g transform="translate(248.907907, 271.96951)"><g><path d="M 40.734375 -16.671875 L 36.84375 -16.21875 L 42.078125 -5.53125 L 40.8125 -2.984375 L 29.296875 0 L 21 -15.171875 L 17.34375 -15.015625 L 16.671875 -1.5 L 1.5 -0.21875 L 1.5 -59.9375 L 40.65625 -57.546875 L 43.5625 -54.625 L 43.640625 -21.671875 Z M 27.875 -29.21875 L 27.953125 -45.96875 L 18.078125 -46.9375 L 17.71875 -28.46875 Z M 27.875 -29.21875 "/></g></g></g></svg>